<svg width="24" height="24" viewBox="0 0 24 24" fill="none" xmlns="http://www.w3.org/2000/svg">
<path d="M11.8522 3.16227C11.9315 3.0752 12.0685 3.0752 12.1478 3.16227L13.7771 4.95056C13.8298 5.00832 13.9112 5.03014 13.9857 5.00643L16.2908 4.27238C16.4031 4.23664 16.5217 4.30515 16.5469 4.42022L17.0638 6.78357C17.0805 6.85991 17.1401 6.91953 17.2164 6.93623L19.5798 7.4531C19.6949 7.47827 19.7634 7.59693 19.7276 7.70917L18.9936 10.0143C18.9699 10.0888 18.9917 10.1702 19.0494 10.2229L20.8377 11.8522C20.9248 11.9315 20.9248 12.0685 20.8377 12.1478L19.0494 13.7771C18.9917 13.8298 18.9699 13.9112 18.9936 13.9857L19.7276 16.2908C19.7634 16.4031 19.6949 16.5217 19.5798 16.5469L17.2164 17.0638C17.1401 17.0805 17.0805 17.1401 17.0638 17.2164L16.5469 19.5798C16.5217 19.6949 16.4031 19.7634 16.2908 19.7276L13.9857 18.9936C13.9112 18.9699 13.8298 18.9917 13.7771 19.0494L12.1478 20.8377C12.0685 20.9248 11.9315 20.9248 11.8522 20.8377L10.2229 19.0494C10.1702 18.9917 10.0888 18.9699 10.0143 18.9936L7.70917 19.7276C7.59693 19.7634 7.47827 19.6949 7.4531 19.5798L6.93623 17.2164C6.91953 17.1401 6.85991 17.0805 6.78357 17.0638L4.42022 16.5469C4.30515 16.5217 4.23664 16.4031 4.27238 16.2908L5.00643 13.9857C5.03014 13.9112 5.00832 13.8298 4.95056 13.7771L3.16227 12.1478C3.0752 12.0685 3.0752 11.9315 3.16227 11.8522L4.95056 10.2229C5.00832 10.1702 5.03014 10.0888 5.00643 10.0143L4.27238 7.70917C4.23664 7.59693 4.30515 7.47827 4.42022 7.4531L6.78357 6.93623C6.85991 6.91953 6.91953 6.85991 6.93623 6.78357L7.4531 4.42022C7.47827 4.30515 7.59693 4.23664 7.70917 4.27238L10.0143 5.00643C10.0888 5.03014 10.1702 5.00832 10.2229 4.95056L11.8522 3.16227Z" stroke="white" stroke-width="2"/>
</svg>
