<svg width="160" height="61" viewBox="0 0 160 61" fill="none" xmlns="http://www.w3.org/2000/svg">
<g filter="url(#filter0_d_1704_447)">
<rect x="1" y="1" width="152" height="53" rx="6" fill="#FFFEFC"/>
</g>
<path d="M18.6454 19.2803C20.6721 19.2759 22.1518 19.688 23.0846 20.5167C24.0173 21.3454 24.4853 22.5081 24.4884 24.0048C24.4898 24.6852 24.3838 25.3335 24.1703 25.9499C23.9639 26.559 23.6212 27.1005 23.1424 27.5742C22.6636 28.0407 22.0306 28.4109 21.2434 28.6848C20.4634 28.9587 19.5004 29.0968 18.3546 29.0994L16.6788 29.103L16.6913 34.9897L14.1131 34.9954L14.08 19.2904L18.6454 19.2803ZM18.4781 21.4184L16.6626 21.4224L16.6743 26.9546L18.0815 26.9515C18.8908 26.9497 19.5781 26.8551 20.1434 26.6677C20.7088 26.4731 21.1378 26.1678 21.4306 25.7518C21.7233 25.3358 21.869 24.7876 21.8675 24.1073C21.8656 23.1978 21.5885 22.5216 21.0361 22.0788C20.4909 21.636 19.6382 21.4159 18.4781 21.4184ZM29.9256 34.9607L27.3905 34.9662L27.3552 18.2514L29.8903 18.2459L29.9256 34.9607ZM38.1715 22.8253C39.6754 22.822 40.8112 23.1525 41.5789 23.8169C42.3537 24.4812 42.7426 25.5187 42.7456 26.9295L42.7625 34.9325L40.9686 34.9364L40.4816 33.2509L40.3957 33.2511C40.06 33.6816 39.7134 34.0368 39.3559 34.3169C38.9984 34.597 38.5835 34.8056 38.1111 34.9427C37.6459 35.0869 37.0768 35.1598 36.4036 35.1613C35.6946 35.1628 35.0605 35.0353 34.5014 34.7787C33.9423 34.515 33.501 34.1149 33.1776 33.5785C32.8542 33.0421 32.6916 32.3621 32.6899 31.5386C32.6873 30.314 33.1401 29.3927 34.0483 28.7748C34.9637 28.1569 36.3451 27.8137 38.1926 27.7452L40.255 27.6655L40.2536 27.0424C40.2519 26.2189 40.0573 25.6321 39.6699 25.282C39.2896 24.9319 38.7521 24.7577 38.0574 24.7592C37.463 24.7605 36.8867 24.8477 36.3285 25.0208C35.7702 25.1939 35.2264 25.4064 34.697 25.6582L33.8768 23.8768C34.4563 23.5675 35.1146 23.3154 35.8518 23.1205C36.5962 22.9255 37.3694 22.8271 38.1715 22.8253ZM40.2476 29.2554L38.7116 29.3124C37.4512 29.3582 36.5673 29.575 36.0596 29.9628C35.552 30.3506 35.2988 30.8811 35.3003 31.5543C35.3015 32.1416 35.4779 32.5709 35.8294 32.8422C36.1808 33.1064 36.643 33.2379 37.2159 33.2366C38.0896 33.2347 38.8124 32.9861 39.3843 32.4907C39.9633 31.9881 40.2518 31.2534 40.2498 30.2866L40.2476 29.2554ZM44.4776 23.0371L47.2276 23.031L49.6804 29.8147C49.7885 30.1224 49.8858 30.4266 49.9724 30.7272C50.0661 31.0206 50.1455 31.3104 50.2105 31.5967C50.2828 31.883 50.3407 32.1694 50.3842 32.4557L50.4487 32.4556C50.5195 32.0831 50.6189 31.6675 50.7468 31.2089C50.8819 30.7431 51.0313 30.2772 51.1951 29.8114L53.5225 23.0172L56.2403 23.0112L51.1663 36.5468C50.8743 37.3209 50.5141 37.9805 50.0855 38.5258C49.6642 39.0781 49.1637 39.4946 48.5842 39.7751C48.0048 40.0629 47.3426 40.2076 46.5979 40.2092C46.2398 40.21 45.9282 40.1892 45.6632 40.1468C45.3981 40.1116 45.1724 40.0727 44.9861 40.0301L44.9819 38.0106C45.1323 38.0461 45.3222 38.0779 45.5514 38.106C45.7806 38.1342 46.017 38.148 46.2605 38.1474C46.7117 38.1464 47.1018 38.0561 47.4308 37.8763C47.7599 37.6966 48.0386 37.4417 48.2671 37.1118C48.4956 36.789 48.6846 36.4198 48.8341 36.0041L49.2507 34.886L44.4776 23.0371ZM58.3279 34.8983L58.2947 19.1932L60.8729 19.1875L60.9014 32.7012L67.5723 32.6865L67.5769 34.8779L58.3279 34.8983ZM72.5362 22.9754L72.5613 34.867L70.0368 34.8725L70.0117 22.981L72.5362 22.9754ZM71.2805 18.4235C71.6672 18.4226 72.0004 18.5257 72.2801 18.7328C72.567 18.9398 72.711 19.2976 72.7121 19.8061C72.7131 20.3074 72.5707 20.6658 72.2847 20.8812C72.0058 21.0895 71.673 21.1941 71.2863 21.1949C70.8853 21.1958 70.5449 21.0927 70.2651 20.8857C69.9925 20.6714 69.8557 20.3136 69.8547 19.8123C69.8536 19.3039 69.9889 18.9455 70.2606 18.7372C70.5395 18.5289 70.8794 18.4243 71.2805 18.4235ZM84.1664 31.4469C84.168 32.2275 83.9796 32.8868 83.6012 33.4247C83.2228 33.9627 82.6686 34.3721 81.9388 34.653C81.216 34.9267 80.3283 35.0648 79.2756 35.0671C78.4448 35.0689 77.7286 35.0096 77.1267 34.8892C76.5321 34.7759 75.9695 34.5981 75.4391 34.3558L75.4345 32.1751C76.0008 32.4388 76.6351 32.6666 77.3373 32.8584C78.0467 33.0502 78.7165 33.1454 79.3467 33.1441C80.1774 33.1422 80.7751 33.012 81.1398 32.7534C81.5045 32.4876 81.6864 32.1363 81.6854 31.6995C81.6849 31.4416 81.6092 31.2126 81.4584 31.0125C81.3147 30.8051 81.0422 30.5944 80.6407 30.3805C80.2463 30.1593 79.6657 29.8956 78.8988 29.5894C78.1462 29.2902 77.5118 28.9909 76.9955 28.6912C76.4792 28.3916 76.0882 28.0308 75.8223 27.6088C75.5564 27.1797 75.4228 26.6322 75.4214 25.9661C75.4192 24.9134 75.8328 24.114 76.6624 23.5679C77.4991 23.0146 78.605 22.7365 79.98 22.7335C80.7105 22.7319 81.3981 22.8055 82.043 22.9545C82.695 23.0963 83.3328 23.3062 83.9564 23.5841L83.1655 25.4872C82.6279 25.2521 82.0868 25.0599 81.5422 24.9107C81.0048 24.7543 80.4568 24.6768 79.8982 24.678C79.2465 24.6794 78.749 24.7808 78.4056 24.982C78.0695 25.1833 77.9018 25.4701 77.9026 25.8425C77.9032 26.1218 77.986 26.358 78.1511 26.551C78.3163 26.744 78.5995 26.9367 79.001 27.1292C79.4096 27.3216 79.9759 27.5603 80.6998 27.8452C81.4093 28.1157 82.0222 28.4009 82.5385 28.7005C83.0619 28.993 83.4637 29.3538 83.7439 29.7828C84.0241 30.2119 84.1649 30.7666 84.1664 31.4469ZM91.324 32.9996C91.6534 32.9988 91.9792 32.9695 92.3013 32.9115C92.6234 32.8463 92.9169 32.7705 93.1817 32.684L93.1857 34.5961C92.9067 34.7184 92.5453 34.8231 92.1014 34.91C91.6576 34.9969 91.1958 35.0409 90.716 35.0419C90.0428 35.0434 89.4374 34.9337 88.8998 34.7129C88.3622 34.4849 87.9353 34.0956 87.619 33.5448C87.3028 32.9941 87.1436 32.2317 87.1416 31.2578L87.1281 24.8662L85.506 24.8698L85.5036 23.7418L87.242 22.8464L88.0637 20.2987L89.6536 20.2952L89.6592 22.9378L93.0644 22.9303L93.0685 24.8531L89.6632 24.8606L89.6766 31.22C89.6779 31.8215 89.8292 32.2688 90.1306 32.5618C90.432 32.8547 90.8298 33.0007 91.324 32.9996Z" fill="#5F4C93"/>
<g filter="url(#filter1_d_1704_447)">
<rect x="108" y="11" width="33" height="31" rx="9" fill="#FFFEFC"/>
</g>
<path d="M122 18.2034L122.357 34.662L131.552 25.8178L122 18.2034Z" fill="#5F4C93"/>
<defs>
<filter id="filter0_d_1704_447" x="0" y="0" width="160" height="61" filterUnits="userSpaceOnUse" color-interpolation-filters="sRGB">
<feFlood flood-opacity="0" result="BackgroundImageFix"/>
<feColorMatrix in="SourceAlpha" type="matrix" values="0 0 0 0 0 0 0 0 0 0 0 0 0 0 0 0 0 0 127 0" result="hardAlpha"/>
<feOffset dx="3" dy="3"/>
<feGaussianBlur stdDeviation="2"/>
<feComposite in2="hardAlpha" operator="out"/>
<feColorMatrix type="matrix" values="0 0 0 0 0 0 0 0 0 0 0 0 0 0 0 0 0 0 0.49 0"/>
<feBlend mode="normal" in2="BackgroundImageFix" result="effect1_dropShadow_1704_447"/>
<feBlend mode="normal" in="SourceGraphic" in2="effect1_dropShadow_1704_447" result="shape"/>
</filter>
<filter id="filter1_d_1704_447" x="107" y="10" width="39" height="37" filterUnits="userSpaceOnUse" color-interpolation-filters="sRGB">
<feFlood flood-opacity="0" result="BackgroundImageFix"/>
<feColorMatrix in="SourceAlpha" type="matrix" values="0 0 0 0 0 0 0 0 0 0 0 0 0 0 0 0 0 0 127 0" result="hardAlpha"/>
<feOffset dx="2" dy="2"/>
<feGaussianBlur stdDeviation="1.5"/>
<feComposite in2="hardAlpha" operator="out"/>
<feColorMatrix type="matrix" values="0 0 0 0 0 0 0 0 0 0 0 0 0 0 0 0 0 0 0.4 0"/>
<feBlend mode="normal" in2="BackgroundImageFix" result="effect1_dropShadow_1704_447"/>
<feBlend mode="normal" in="SourceGraphic" in2="effect1_dropShadow_1704_447" result="shape"/>
</filter>
</defs>
</svg>
